<svg id="Capa_1" data-name="Capa 1" xmlns="http://www.w3.org/2000/svg" viewBox="0 0 3200.62 730.41"><defs><style>.cls-1{fill:#1f2021;}.cls-2{fill:#e6b21f;}.cls-3{fill:#fff;}.cls-4{fill:#feffff;}.cls-5{fill:#f5cf60;}.cls-6{fill:none;stroke:#1f2021;stroke-miterlimit:10;stroke-width:8px;}</style></defs><rect class="cls-1" x="681.3" y="4" width="2334.52" height="726.41"/><rect class="cls-2" y="4" width="681.3" height="726.41"/><path class="cls-3" d="M1131.27,1668.47V1277.16h160.8v76h-91.5v71.14h84.8v78.77h-84.8v165.42Z" transform="translate(-267.6 -1105.61)"/><path class="cls-3" d="M1332.46,1277.16h69.68v245.2q0,55.65,5.26,68.86t18.67,13.21q13.59,0,18.76-13.72t5.17-68.35v-245.2h68.34v249.78q0,42.43-2.78,63.39t-9.09,36.46q-10.53,26.43-30.44,38.75t-51.88,12.33q-29.48,0-48-11.56t-29.48-37q-7.86-18-11-46.25t-3.16-95.28Z" transform="translate(-267.6 -1105.61)"/><path class="cls-3" d="M1557.2,1535.83h63.17v11.43q0,32.28,5.74,45.49t19.33,13.21q10.92,0,17.23-10t6.32-27.31q0-28.45-30.82-54.63-5-4.57-7.66-6.86-1-.76-3.25-2.8-41.55-37.1-51.69-55.9a130,130,0,0,1-11.1-32,185,185,0,0,1-3.83-38.88q0-51.32,22.4-80.55t61.64-29.22q42.69,0,65.18,28.72t22.49,83.08q0,2.3-.19,6.36c-.13,2.71-.19,4.82-.19,6.35h-61.83v-4.83q0-25.67-6-38.88t-17.52-13.21q-9.77,0-15.69,9.28t-5.94,24.52q0,24.9,33.69,52.85c4.09,3.55,7.21,6.27,9.38,8.13q2.68,2,7.47,6.35,36.18,30.49,46.32,51.33a130.61,130.61,0,0,1,9.67,30.61,194.7,194.7,0,0,1,3.35,37.23q0,58.69-23,90.46t-65.66,31.76q-44.79,0-67.29-30.37t-22.49-90.33q0-3.81.1-8T1557.2,1535.83Z" transform="translate(-267.6 -1105.61)"/><path class="cls-3" d="M1772,1668.47V1277.16h160.41v76h-91.88v71.91h84.8v78.51h-84.8v85.38h91.88v79.53Z" transform="translate(-267.6 -1105.61)"/><path class="cls-3" d="M2071.18,1535.83h63.17v11.43q0,32.28,5.74,45.49t19.34,13.21q10.91,0,17.22-10t6.32-27.31q0-28.45-30.82-54.63-5-4.57-7.66-6.86-1-.76-3.25-2.8-41.53-37.1-51.69-55.9a130,130,0,0,1-11.1-32,185,185,0,0,1-3.83-38.88q0-51.32,22.4-80.55t61.64-29.22q42.69,0,65.18,28.72t22.49,83.08q0,2.3-.19,6.36c-.13,2.71-.19,4.82-.19,6.35h-61.83v-4.83q0-25.67-6-38.88t-17.52-13.21q-9.75,0-15.69,9.28t-5.94,24.52q0,24.9,33.69,52.85c4.09,3.55,7.21,6.27,9.38,8.13q2.68,2,7.47,6.35,36.18,30.49,46.33,51.33a131.08,131.08,0,0,1,9.66,30.61,194.7,194.7,0,0,1,3.35,37.23q0,58.69-23,90.46t-65.66,31.76q-44.79,0-67.29-30.37t-22.49-90.33q0-3.81.1-8T2071.18,1535.83Z" transform="translate(-267.6 -1105.61)"/><path class="cls-3" d="M2322,1668.47V1353.14h-55.13v-76h182.23v76h-58v315.33Z" transform="translate(-267.6 -1105.61)"/><path class="cls-3" d="M2471.26,1472.82q0-70.65,3.83-103.17t12.63-50.81q12.65-25.92,33.12-38.5t49.2-12.58q28.9,0,49.1,12.58t32.83,38.5q9.18,18.54,13,51.07t3.83,102.91q0,70.13-3.83,102.78t-13,51.19q-12.45,25.68-32.83,38.37t-49.1,12.71q-28.73,0-49.2-12.71t-33.12-38.37q-8.8-18.29-12.63-50.81T2471.26,1472.82Zm127.11,35.31V1437.5q0-65.05-6.22-80.42t-22.5-15.38q-15.89,0-22,15.76t-6.13,80v70.63q0,63.52,6.13,79.66t22.4,16.14q16.08,0,22.2-15.76T2598.37,1508.13Z" transform="translate(-267.6 -1105.61)"/><path class="cls-3" d="M2710.93,1668.47V1277.16h77.53q38.09,0,55.32,4.7t27.95,16.14q12.63,13.73,18.85,33.79t6.22,47.77q0,33.8-8.9,56.67a86.92,86.92,0,0,1-27.66,37.6q32,18.81,33.69,89.19v1.27q.2,7.37.38,21.34.77,66.07,16.47,82.84h-80.59a209.24,209.24,0,0,1-3.93-25.54q-1.25-13.34-1.24-28.59,0-9.39.38-22.74t.38-17.4q0-35.84-7.08-49T2793.24,1512h-14.16v156.52ZM2779.08,1440c1.14,0,2.64.08,4.49.25s3.23.26,4.12.26q21.43,0,30.34-11.44t8.9-38.62q0-25.15-8.9-35.7t-30.34-10.55c-.89,0-2.27.09-4.12.26s-3.35.25-4.49.25Z" transform="translate(-267.6 -1105.61)"/><path class="cls-3" d="M2940.64,1668.47V1277.16h160.42v76h-91.89v71.91H3094v78.51h-84.8v85.38h91.89v79.53Z" transform="translate(-267.6 -1105.61)"/><path class="cls-4" d="M608.25,1755V1200H836.88v107.76H706.78v100.91H827.36V1520.4H706.78V1755Z" transform="translate(-267.6 -1105.61)"/><path class="cls-5" d="M509.72,1755V1520.4H389.15V1408.68H509.72V1307.77H379.62V1200H608.25v555Z" transform="translate(-267.6 -1105.61)"/><path class="cls-1" d="M3428.7,1198a126.41,126.41,0,0,0-9.26-13.73,32.54,32.54,0,0,0-5.17-5.19c-1.07-.84-1-1.44.26-2a21,21,0,0,1,3.16-1.07,19.47,19.47,0,0,0,12.36-10.43c2-4,2.19-8.4,1.28-12.8-1.74-8.44-8.56-14.84-17.23-15.15-3.58-.13-7.15-.29-10.73-.35q-13.3-.21-26.61-.44c-.54,0-.76.07-.76.71q0,35.91,0,71.81c0,.59.18.68.7.68,2.59,0,5.19,0,7.78,0,.67,0,.79-.19.78-.84,0-10,0-20,0-30,0-.59.12-.76.72-.75,3.94,0,7.88,0,11.82.12a14.33,14.33,0,0,1,10.92,5.08,70,70,0,0,1,6.42,9c3.42,5.56,6.78,11.16,10.17,16.74.16.27.24.62.71.62,3.21,0,6.42,0,9.8,0C3433.39,1205.93,3431.07,1202,3428.7,1198Zm-42.66-28.2c-.65,0-.8-.16-.8-.82q0-11.28,0-22.54c0-.62.14-.79.75-.78,3.84,0,7.68,0,11.52,0v.16c3.7,0,7.41-.07,11.12,0a19.77,19.77,0,0,1,7.82,1.37c7.6,3.44,8.87,13.73,2.45,19.21a13.43,13.43,0,0,1-8.37,3C3402.37,1169.94,3394.21,1169.74,3386,1169.82Z" transform="translate(-267.6 -1105.61)"/><circle class="cls-6" cx="3401.53" cy="1172.31" r="62.7" transform="translate(-100.26 1643) rotate(-45)"/></svg>