<svg version="1.1" id="Layer_1" xmlns="http://www.w3.org/2000/svg" xmlns:xlink="http://www.w3.org/1999/xlink" x="0px" y="0px"
	 width="100%" viewBox="0 0 3360 718" enable-background="new 0 0 3360 718" xml:space="preserve">
<path fill="#010101" opacity="1.000000" stroke="none" 
	d="
M756.000000,1.000000 
	C1624.276733,1.000000 2492.553467,1.000000 3360.915039,1.000000 
	C3360.915039,240.261017 3360.915039,479.522095 3360.915039,719.000000 
	C2492.962402,719.000000 1624.924805,719.000000 756.449829,718.540344 
	C756.008301,479.053802 756.004150,240.026901 756.000000,1.000000 
M2846.031006,278.504211 
	C2850.109375,245.155457 2849.828857,212.016724 2841.011719,179.331757 
	C2830.903076,141.859253 2805.268555,120.989922 2766.607910,120.256569 
	C2728.458008,119.532898 2690.285889,119.974968 2652.123535,119.929214 
	C2651.681396,119.928680 2651.238525,120.243446 2650.993164,120.336411 
	C2650.993164,273.065155 2650.993164,425.619629 2650.993164,577.975403 
	C2673.494141,577.975403 2695.573975,577.975403 2718.116211,577.975403 
	C2718.116211,514.738403 2718.116211,451.834198 2718.116211,387.942108 
	C2729.073975,388.860291 2739.599365,389.079498 2749.885010,390.762970 
	C2764.495850,393.154266 2774.855469,401.752533 2777.854980,416.448853 
	C2780.535156,429.579498 2782.217285,443.075165 2782.660156,456.465302 
	C2783.420410,479.439606 2782.994385,502.458069 2782.832031,525.456360 
	C2782.714844,542.028992 2783.768555,558.382996 2788.753174,574.349487 
	C2789.759277,577.571594 2791.120850,578.395386 2794.269775,578.373962 
	C2813.268311,578.244385 2832.268311,578.318359 2851.267822,578.304565 
	C2852.554932,578.303589 2853.842285,578.141968 2855.211182,578.049561 
	C2854.428223,571.330322 2853.307373,564.924072 2852.992432,558.478516 
	C2851.203369,521.861938 2849.981445,485.213440 2847.774658,448.623566 
	C2846.785889,432.223541 2844.800293,415.775452 2841.758545,399.633331 
	C2837.422119,376.618988 2823.252197,361.845551 2800.468994,355.634613 
	C2797.702637,354.880493 2794.968262,354.007782 2791.046875,352.841339 
	C2810.207275,347.135345 2823.852539,336.404419 2832.994385,320.071899 
	C2840.091797,307.391968 2843.665527,293.589996 2846.031006,278.504211 
M2456.522217,111.949219 
	C2445.975830,114.855659 2436.331299,119.576256 2427.691895,126.307953 
	C2410.607666,139.620026 2400.884766,157.794891 2393.925781,177.733170 
	C2383.998291,206.177582 2380.881592,235.847702 2379.209961,265.626556 
	C2375.686523,328.397461 2375.559082,391.188141 2381.098877,453.867737 
	C2383.377197,479.642639 2388.327393,504.978546 2398.360596,529.011963 
	C2408.251953,552.706238 2424.045898,570.954590 2448.459961,580.486450 
	C2465.109863,586.986938 2482.569092,587.612671 2500.159180,586.202820 
	C2540.974854,582.931274 2567.966553,561.541077 2582.068115,523.424988 
	C2591.167725,498.829803 2595.091064,473.127502 2596.760986,447.176941 
	C2600.819092,384.102753 2600.104736,320.963104 2597.596680,257.848694 
	C2596.442627,228.808929 2592.478516,200.159195 2583.111328,172.454544 
	C2576.070557,151.631104 2564.741699,133.756256 2545.671631,122.272888 
	C2517.989502,105.603394 2488.008545,104.873985 2456.522217,111.949219 
M1069.600952,217.499756 
	C1069.600952,271.655914 1069.454468,325.812592 1069.662964,379.967957 
	C1069.766846,406.949615 1069.842896,433.962250 1071.175659,460.899353 
	C1072.440308,486.459534 1077.451660,511.439636 1088.739868,534.751038 
	C1098.437622,554.778076 1112.770630,570.148376 1133.606567,578.881897 
	C1151.086792,586.208801 1169.363159,587.262146 1188.024292,586.299805 
	C1228.400024,584.217590 1259.432617,561.073853 1273.101196,523.083313 
	C1282.354858,497.363708 1286.500977,470.719849 1286.625854,443.666534 
	C1287.119019,336.857941 1286.982178,230.046417 1287.057739,123.235962 
	C1287.058472,122.147316 1286.770752,121.058472 1286.658569,120.261002 
	C1264.866455,120.261002 1243.460693,120.261002 1221.864014,120.261002 
	C1221.864014,122.289284 1221.863892,123.945755 1221.863892,125.602219 
	C1221.865479,225.582260 1221.892944,325.562317 1221.826538,425.542297 
	C1221.820312,434.864990 1221.567993,444.215302 1220.818848,453.503540 
	C1219.515259,469.668762 1217.055786,485.665649 1208.829224,500.032623 
	C1201.806274,512.297363 1191.187256,518.784119 1176.816650,518.480164 
	C1162.738892,518.182373 1153.555420,510.607910 1147.667725,498.448059 
	C1145.863525,494.721832 1144.316528,490.817627 1143.139404,486.850281 
	C1137.239868,466.966736 1136.665527,446.483582 1136.661621,425.963348 
	C1136.642578,325.816681 1136.655029,225.670013 1136.656250,125.523338 
	C1136.656250,123.743881 1136.656128,121.964424 1136.656128,120.214455 
	C1113.952881,120.214455 1091.879517,120.214455 1069.600952,120.214455 
	C1069.600952,152.526138 1069.600952,184.512939 1069.600952,217.499756 
M1533.304443,250.065048 
	C1534.720337,249.957626 1536.136353,249.850189 1537.781982,249.725342 
	C1537.759155,222.099564 1537.592041,194.984482 1529.099609,168.707596 
	C1521.730225,145.905411 1507.822632,128.975677 1485.384644,119.727638 
	C1469.836060,113.319092 1453.511841,112.146347 1436.874634,112.731728 
	C1391.064697,114.343536 1356.595459,141.833847 1344.847656,186.175461 
	C1337.774536,212.872986 1337.982422,239.847549 1340.785522,267.041901 
	C1343.926270,297.511475 1355.763550,323.926544 1377.435791,345.540375 
	C1390.751953,358.820740 1404.795654,371.380890 1418.698975,384.060181 
	C1428.300659,392.816559 1437.907349,401.617279 1448.062622,409.706573 
	C1470.536255,427.608185 1476.307007,451.415863 1473.496460,478.503601 
	C1472.540527,487.716248 1470.276978,496.546265 1464.855957,504.259430 
	C1457.218628,515.126221 1446.333618,518.403259 1433.721069,517.045715 
	C1422.046143,515.789001 1414.168579,509.371582 1409.713989,498.566315 
	C1405.138306,487.467346 1403.445068,475.784180 1402.970947,463.931915 
	C1402.613892,455.005463 1402.900391,446.053284 1402.900391,436.975800 
	C1379.445435,436.975800 1357.037476,436.975800 1334.213501,436.975800 
	C1334.213501,445.683411 1334.117676,454.144379 1334.231567,462.602539 
	C1334.573853,488.044312 1336.483398,513.246094 1347.261841,536.837097 
	C1358.480469,561.391357 1377.041382,577.290405 1403.453613,583.603027 
	C1421.226685,587.850830 1439.197388,587.625061 1457.087646,584.773865 
	C1494.751953,578.771423 1519.781006,557.554260 1532.186768,521.436096 
	C1540.263184,497.922638 1542.119995,473.588715 1541.791748,448.991669 
	C1541.564209,431.947296 1539.922852,415.030243 1534.726807,398.687836 
	C1527.718140,376.645172 1514.171143,358.832611 1497.508301,343.322205 
	C1474.944580,322.319183 1452.165771,301.542755 1429.249146,280.924927 
	C1416.337646,269.308624 1408.946167,255.103119 1407.616211,237.886520 
	C1406.378174,221.858414 1407.536865,206.115097 1416.936157,192.291397 
	C1429.135254,174.350159 1453.784912,175.293320 1463.535278,194.614456 
	C1467.552979,202.575500 1469.451294,211.892517 1470.827759,220.821823 
	C1472.285034,230.275894 1471.975342,240.002335 1472.459351,250.063766 
	C1492.439209,250.063766 1512.389648,250.063766 1533.304443,250.065048 
M1913.321045,185.883743 
	C1904.668335,220.195389 1905.608887,254.539856 1913.240845,288.839722 
	C1918.846191,314.030365 1933.327759,334.172180 1951.545288,351.451843 
	C1972.932007,371.737732 1995.246948,391.054596 2017.372803,410.549286 
	C2041.274902,431.608917 2049.786621,466.702179 2037.765625,496.171997 
	C2031.829468,510.724884 2020.938965,517.710510 2004.904419,517.250610 
	C1990.933960,516.849854 1981.670410,509.471680 1976.653809,494.615875 
	C1972.284912,481.677765 1971.204346,468.247162 1970.959473,454.717010 
	C1970.852173,448.792572 1970.941406,442.864532 1970.941406,437.073273 
	C1947.769775,437.073273 1925.365845,437.073273 1903.037109,437.073273 
	C1903.037109,450.409912 1902.751465,463.401978 1903.107178,476.376434 
	C1903.583984,493.762329 1906.054199,510.886078 1911.871704,527.376709 
	C1921.351196,554.248108 1938.531738,573.599854 1966.373535,582.111328 
	C1985.562256,587.977478 2005.202515,587.866577 2024.799805,584.870728 
	C2058.755371,579.679871 2083.524170,562.102783 2097.268311,530.003967 
	C2104.704346,512.637024 2108.150391,494.401306 2109.447754,475.700378 
	C2111.021973,453.013336 2110.733643,430.386871 2105.744385,408.062256 
	C2099.765381,381.306885 2084.338867,360.314636 2064.671387,342.107056 
	C2042.538086,321.616760 2020.101685,301.453918 1997.970825,280.960938 
	C1993.484985,276.807129 1988.944702,272.311279 1985.850098,267.125366 
	C1972.484375,244.727142 1972.645264,221.342484 1982.156006,197.601639 
	C1982.708496,196.222626 1983.533447,194.935837 1984.347290,193.681213 
	C1990.186768,184.678299 1998.077026,179.470688 2009.220459,179.835434 
	C2020.442017,180.202713 2027.981079,185.992416 2032.811157,195.615173 
	C2038.868530,207.682983 2039.970947,220.811615 2040.303101,234.032639 
	C2040.435425,239.299393 2040.324829,244.572250 2040.324829,249.724854 
	C2062.713623,249.724854 2084.289062,249.724854 2106.120850,249.724854 
	C2106.120850,244.735413 2106.143066,240.085876 2106.117188,235.436600 
	C2105.993652,213.214661 2104.616699,191.145340 2097.877930,169.756149 
	C2092.201172,151.737625 2082.838867,136.057053 2066.230957,126.346733 
	C2034.068359,107.542183 2000.216064,108.280922 1966.699341,121.507172 
	C1937.980103,132.840164 1922.080444,156.214310 1913.321045,185.883743 
M3029.500000,578.311096 
	C3045.427734,578.311096 3061.355469,578.311096 3077.481934,578.311096 
	C3077.481934,554.224854 3077.481934,530.798523 3077.481934,506.703979 
	C3040.264160,506.703979 3003.245361,506.703979 2966.460693,506.703979 
	C2966.460693,462.141754 2966.460693,418.248474 2966.460693,373.886230 
	C2999.747070,373.886230 3032.644287,373.886230 3065.462402,373.886230 
	C3065.462402,350.174011 3065.462402,326.935760 3065.462402,303.203552 
	C3032.246826,303.203552 2999.348877,303.203552 2966.328125,303.203552 
	C2966.328125,265.460419 2966.328125,228.215317 2966.328125,190.451508 
	C3002.320312,190.451508 3038.060547,190.451508 3073.757812,190.451508 
	C3073.757812,166.682678 3073.757812,143.434616 3073.757812,120.271744 
	C3015.399658,120.271744 2957.364258,120.271744 2899.365723,120.271744 
	C2899.365723,273.073639 2899.365723,425.487030 2899.365723,578.311096 
	C2942.585449,578.311096 2985.542725,578.311096 3029.500000,578.311096 
M1739.499146,374.145294 
	C1744.943481,374.145294 1750.387817,374.145294 1755.751709,374.145294 
	C1755.751709,350.266327 1755.751709,326.900085 1755.751709,303.183899 
	C1722.602905,303.183899 1689.838867,303.183899 1656.983276,303.183899 
	C1656.983276,265.473816 1656.983276,228.119995 1656.983276,190.360321 
	C1692.964722,190.360321 1728.554077,190.360321 1764.288574,190.360321 
	C1764.288574,166.704529 1764.288574,143.457581 1764.288574,120.084755 
	C1706.061035,120.084755 1648.128784,120.084755 1589.939087,120.084755 
	C1589.939087,272.822906 1589.939087,425.366455 1589.939087,577.965881 
	C1649.390259,577.965881 1708.582520,577.965881 1767.712891,577.965881 
	C1767.712891,554.062500 1767.712891,530.510925 1767.712891,506.638306 
	C1730.566895,506.638306 1693.785400,506.638306 1656.859619,506.638306 
	C1656.859619,462.404968 1656.859619,418.497437 1656.859619,374.145294 
	C1684.249390,374.145294 1711.374268,374.145294 1739.499146,374.145294 
M1039.193359,183.403595 
	C1039.193359,162.312820 1039.193359,141.222061 1039.193359,120.094948 
	C983.445251,120.094948 928.356873,120.094948 873.039001,120.094948 
	C873.039001,272.847839 873.039001,425.391296 873.039001,578.123779 
	C895.392029,578.123779 917.476379,578.123779 940.184753,578.123779 
	C940.184753,511.578674 940.184753,445.213959 940.184753,378.327881 
	C972.051819,378.327881 1003.298401,378.327881 1034.470337,378.327881 
	C1034.470337,354.700623 1034.470337,331.600189 1034.470337,308.012085 
	C1002.952515,308.012085 971.722351,308.012085 940.429565,308.012085 
	C940.429565,268.632599 940.429565,229.744720 940.429565,190.347260 
	C973.479980,190.347260 1006.205994,190.347260 1039.193115,190.347260 
	C1039.193115,188.019440 1039.193115,186.196869 1039.193359,183.403595 
M2142.503418,194.353363 
	C2163.623047,194.353363 2184.742676,194.353363 2206.405029,194.353363 
	C2206.405029,322.561981 2206.405029,450.263611 2206.405029,577.958374 
	C2229.343262,577.958374 2251.732910,577.958374 2274.504395,577.958374 
	C2274.504395,450.038452 2274.504395,322.472870 2274.504395,194.390060 
	C2299.442383,194.390060 2324.001953,194.390060 2348.719727,194.390060 
	C2348.719727,169.318451 2348.719727,144.765915 2348.719727,120.253632 
	C2276.552002,120.253632 2204.688232,120.253632 2132.887695,120.253632 
	C2132.887695,145.053604 2132.887695,169.488770 2132.887695,194.353378 
	C2135.918457,194.353378 2138.709717,194.353378 2142.503418,194.353363 
z"/>
<path fill="#DAB449" opacity="1.000000" stroke="none" 
	d="
M755.000000,719.000000 
	C503.713654,719.000000 252.427292,719.000000 1.070469,719.000000 
	C1.070469,479.758392 1.070469,240.516769 1.070469,1.000000 
	C252.027969,1.000000 503.056030,1.000000 754.538452,1.459695 
	C754.995239,240.946259 754.997620,479.973145 755.000000,719.000000 
M382.972504,657.028687 
	C414.868622,657.028687 446.764771,657.028687 479.109406,657.028687 
	C479.109406,575.911560 479.109406,495.651550 479.109406,414.731262 
	C481.488525,414.731262 483.434692,414.731293 485.380859,414.731262 
	C518.710388,414.730896 552.040222,414.662262 585.369080,414.814301 
	C589.658813,414.833862 591.078369,413.754761 591.047668,409.237000 
	C590.851685,380.408417 590.872498,351.577026 591.073303,322.748322 
	C591.104370,318.287994 589.759766,317.148499 585.399536,317.170380 
	C551.904236,317.338379 518.407104,317.158234 484.912201,317.360901 
	C480.068176,317.390228 478.837494,316.009094 478.855408,311.231812 
	C479.031677,264.237854 479.029205,217.242676 478.853699,170.248688 
	C478.835693,165.425949 480.172028,164.069427 484.995422,164.088593 
	C529.489624,164.265488 573.984924,164.152206 618.479492,164.278030 
	C622.421265,164.289169 624.008667,163.548752 623.979187,159.139404 
	C623.786255,130.310669 623.887512,101.480019 623.869080,72.650002 
	C623.868164,71.216705 623.647583,69.783554 623.499146,67.984962 
	C620.584045,67.984962 618.105164,67.984711 615.626343,67.985001 
	C574.964294,67.989738 534.302307,67.981499 493.640259,68.003197 
	C456.478729,68.023026 419.317169,68.075264 381.202423,68.026543 
	C301.063049,68.016968 220.923569,68.045975 140.784424,67.902168 
	C135.964706,67.893524 134.928848,69.634865 134.953583,74.042542 
	C135.110733,102.032303 135.146866,130.024277 134.924789,158.013153 
	C134.886871,162.791092 136.147507,164.148224 140.987961,164.129257 
	C187.138489,163.948212 233.290192,164.078110 279.440948,163.929901 
	C283.742188,163.916092 285.105286,164.902130 285.088867,169.431839 
	C284.916687,216.915344 284.927307,264.399902 285.075165,311.883545 
	C285.088470,316.159485 283.722412,317.133942 279.678162,317.116669 
	C245.856766,316.972107 212.034149,317.105011 178.212845,316.947510 
	C174.049026,316.928131 172.869080,318.122925 172.894135,322.270355 
	C173.062103,350.093384 172.979462,377.917908 172.979172,405.741943 
	C172.979065,414.922699 173.003021,414.944611 182.500748,414.965668 
	C183.167191,414.967133 183.834091,414.981628 184.500000,414.962769 
	C194.959717,414.666779 205.420532,414.082123 215.878662,414.127075 
	C236.502563,414.215790 257.125061,414.848328 277.747955,414.840210 
	C284.984222,414.837372 284.981934,414.280609 284.981873,421.729797 
	C284.981415,498.204254 285.013458,574.678772 284.898956,651.153015 
	C284.892426,655.504272 285.719788,657.178833 290.576691,657.138794 
	C321.064056,656.887634 351.554291,656.988892 382.972504,657.028687 
z"/>
<path fill="#CCB46E" opacity="1.000000" stroke="none" 
	d="
M755.250000,719.000000 
	C754.997620,479.973145 754.995239,240.946259 754.996460,1.459695 
	C755.000000,1.000000 755.500000,1.000000 755.750000,1.000000 
	C756.004150,240.026901 756.008301,479.053802 756.006226,718.540344 
	C756.000000,719.000000 755.500000,719.000000 755.250000,719.000000 
z"/>
<path fill="#FEFEFE" opacity="1.000000" stroke="none" 
	d="
M2845.977051,278.937744 
	C2843.665527,293.589996 2840.091797,307.391968 2832.994385,320.071899 
	C2823.852539,336.404419 2810.207275,347.135345 2791.046875,352.841339 
	C2794.968262,354.007782 2797.702637,354.880493 2800.468994,355.634613 
	C2823.252197,361.845551 2837.422119,376.618988 2841.758545,399.633331 
	C2844.800293,415.775452 2846.785889,432.223541 2847.774658,448.623566 
	C2849.981445,485.213440 2851.203369,521.861938 2852.992432,558.478516 
	C2853.307373,564.924072 2854.428223,571.330322 2855.211182,578.049561 
	C2853.842285,578.141968 2852.554932,578.303589 2851.267822,578.304565 
	C2832.268311,578.318359 2813.268311,578.244385 2794.269775,578.373962 
	C2791.120850,578.395386 2789.759277,577.571594 2788.753174,574.349487 
	C2783.768555,558.382996 2782.714844,542.028992 2782.832031,525.456360 
	C2782.994385,502.458069 2783.420410,479.439606 2782.660156,456.465302 
	C2782.217285,443.075165 2780.535156,429.579498 2777.854980,416.448853 
	C2774.855469,401.752533 2764.495850,393.154266 2749.885010,390.762970 
	C2739.599365,389.079498 2729.073975,388.860291 2718.116211,387.942108 
	C2718.116211,451.834198 2718.116211,514.738403 2718.116211,577.975403 
	C2695.573975,577.975403 2673.494141,577.975403 2650.993164,577.975403 
	C2650.993164,425.619629 2650.993164,273.065155 2650.993164,120.336411 
	C2651.238525,120.243446 2651.681396,119.928680 2652.123535,119.929214 
	C2690.285889,119.974968 2728.458008,119.532898 2766.607910,120.256569 
	C2805.268555,120.989922 2830.903076,141.859253 2841.011719,179.331757 
	C2849.828857,212.016724 2850.109375,245.155457 2845.977051,278.937744 
M2717.987793,295.499969 
	C2717.987793,302.923309 2717.987793,310.346649 2717.987793,318.614685 
	C2728.856689,317.928772 2739.039795,317.897034 2749.034180,316.508820 
	C2763.185791,314.543274 2772.832520,306.369659 2776.560547,292.377106 
	C2783.469482,266.444305 2783.662842,240.357605 2776.785889,214.382950 
	C2774.203613,204.629333 2768.016357,197.722748 2758.222900,194.369217 
	C2745.198730,189.909515 2731.767822,190.658035 2717.987793,190.603134 
	C2717.987793,225.591156 2717.987793,260.045563 2717.987793,295.499969 
z"/>
<path fill="#FEFEFE" opacity="1.000000" stroke="none" 
	d="
M2456.918945,111.858917 
	C2488.008545,104.873985 2517.989502,105.603394 2545.671631,122.272888 
	C2564.741699,133.756256 2576.070557,151.631104 2583.111328,172.454544 
	C2592.478516,200.159195 2596.442627,228.808929 2597.596680,257.848694 
	C2600.104736,320.963104 2600.819092,384.102753 2596.760986,447.176941 
	C2595.091064,473.127502 2591.167725,498.829803 2582.068115,523.424988 
	C2567.966553,561.541077 2540.974854,582.931274 2500.159180,586.202820 
	C2482.569092,587.612671 2465.109863,586.986938 2448.459961,580.486450 
	C2424.045898,570.954590 2408.251953,552.706238 2398.360596,529.011963 
	C2388.327393,504.978546 2383.377197,479.642639 2381.098877,453.867737 
	C2375.559082,391.188141 2375.686523,328.397461 2379.209961,265.626556 
	C2380.881592,235.847702 2383.998291,206.177582 2393.925781,177.733170 
	C2400.884766,157.794891 2410.607666,139.620026 2427.691895,126.307953 
	C2436.331299,119.576256 2445.975830,114.855659 2456.918945,111.858917 
M2485.820312,518.487671 
	C2502.702393,518.399719 2513.407471,512.159485 2518.629639,496.137726 
	C2523.080078,482.482849 2526.340820,468.128693 2527.704834,453.852386 
	C2529.745117,432.498230 2530.357178,410.940430 2530.337158,389.470367 
	C2530.291748,341.332458 2529.803467,293.188629 2528.799805,245.061707 
	C2528.477539,229.607834 2525.741455,214.231064 2519.978027,199.662552 
	C2512.708496,181.286453 2496.464355,172.841324 2478.370117,178.098419 
	C2466.515381,181.542770 2460.304932,190.684799 2456.256348,201.478394 
	C2449.558105,219.336594 2447.712891,238.186020 2447.161621,256.966858 
	C2446.012939,296.096832 2445.236328,335.259460 2445.480713,374.401306 
	C2445.657227,402.693665 2447.280762,431.003387 2449.131104,459.248199 
	C2450.110840,474.203094 2453.344971,488.930084 2460.731934,502.343292 
	C2466.008545,511.924164 2473.842773,517.661133 2485.820312,518.487671 
z"/>
<path fill="#FEFEFE" opacity="1.000000" stroke="none" 
	d="
M1069.600952,216.999756 
	C1069.600952,184.512939 1069.600952,152.526138 1069.600952,120.214455 
	C1091.879517,120.214455 1113.952881,120.214455 1136.656128,120.214455 
	C1136.656128,121.964424 1136.656250,123.743881 1136.656250,125.523338 
	C1136.655029,225.670013 1136.642578,325.816681 1136.661621,425.963348 
	C1136.665527,446.483582 1137.239868,466.966736 1143.139404,486.850281 
	C1144.316528,490.817627 1145.863525,494.721832 1147.667725,498.448059 
	C1153.555420,510.607910 1162.738892,518.182373 1176.816650,518.480164 
	C1191.187256,518.784119 1201.806274,512.297363 1208.829224,500.032623 
	C1217.055786,485.665649 1219.515259,469.668762 1220.818848,453.503540 
	C1221.567993,444.215302 1221.820312,434.864990 1221.826538,425.542297 
	C1221.892944,325.562317 1221.865479,225.582260 1221.863892,125.602219 
	C1221.863892,123.945755 1221.864014,122.289284 1221.864014,120.261002 
	C1243.460693,120.261002 1264.866455,120.261002 1286.658569,120.261002 
	C1286.770752,121.058472 1287.058472,122.147316 1287.057739,123.235962 
	C1286.982178,230.046417 1287.119019,336.857941 1286.625854,443.666534 
	C1286.500977,470.719849 1282.354858,497.363708 1273.101196,523.083313 
	C1259.432617,561.073853 1228.400024,584.217590 1188.024292,586.299805 
	C1169.363159,587.262146 1151.086792,586.208801 1133.606567,578.881897 
	C1112.770630,570.148376 1098.437622,554.778076 1088.739868,534.751038 
	C1077.451660,511.439636 1072.440308,486.459534 1071.175659,460.899353 
	C1069.842896,433.962250 1069.766846,406.949615 1069.662964,379.967957 
	C1069.454468,325.812592 1069.600952,271.655914 1069.600952,216.999756 
z"/>
<path fill="#FEFEFE" opacity="1.000000" stroke="none" 
	d="
M1532.822266,250.064407 
	C1512.389648,250.063766 1492.439209,250.063766 1472.459351,250.063766 
	C1471.975342,240.002335 1472.285034,230.275894 1470.827759,220.821823 
	C1469.451294,211.892517 1467.552979,202.575500 1463.535278,194.614456 
	C1453.784912,175.293320 1429.135254,174.350159 1416.936157,192.291397 
	C1407.536865,206.115097 1406.378174,221.858414 1407.616211,237.886520 
	C1408.946167,255.103119 1416.337646,269.308624 1429.249146,280.924927 
	C1452.165771,301.542755 1474.944580,322.319183 1497.508301,343.322205 
	C1514.171143,358.832611 1527.718140,376.645172 1534.726807,398.687836 
	C1539.922852,415.030243 1541.564209,431.947296 1541.791748,448.991669 
	C1542.119995,473.588715 1540.263184,497.922638 1532.186768,521.436096 
	C1519.781006,557.554260 1494.751953,578.771423 1457.087646,584.773865 
	C1439.197388,587.625061 1421.226685,587.850830 1403.453613,583.603027 
	C1377.041382,577.290405 1358.480469,561.391357 1347.261841,536.837097 
	C1336.483398,513.246094 1334.573853,488.044312 1334.231567,462.602539 
	C1334.117676,454.144379 1334.213501,445.683411 1334.213501,436.975800 
	C1357.037476,436.975800 1379.445435,436.975800 1402.900391,436.975800 
	C1402.900391,446.053284 1402.613892,455.005463 1402.970947,463.931915 
	C1403.445068,475.784180 1405.138306,487.467346 1409.713989,498.566315 
	C1414.168579,509.371582 1422.046143,515.789001 1433.721069,517.045715 
	C1446.333618,518.403259 1457.218628,515.126221 1464.855957,504.259430 
	C1470.276978,496.546265 1472.540527,487.716248 1473.496460,478.503601 
	C1476.307007,451.415863 1470.536255,427.608185 1448.062622,409.706573 
	C1437.907349,401.617279 1428.300659,392.816559 1418.698975,384.060181 
	C1404.795654,371.380890 1390.751953,358.820740 1377.435791,345.540375 
	C1355.763550,323.926544 1343.926270,297.511475 1340.785522,267.041901 
	C1337.982422,239.847549 1337.774536,212.872986 1344.847656,186.175461 
	C1356.595459,141.833847 1391.064697,114.343536 1436.874634,112.731728 
	C1453.511841,112.146347 1469.836060,113.319092 1485.384644,119.727638 
	C1507.822632,128.975677 1521.730225,145.905411 1529.099609,168.707596 
	C1537.592041,194.984482 1537.759155,222.099564 1537.781982,249.725342 
	C1536.136353,249.850189 1534.720337,249.957626 1532.822266,250.064407 
z"/>
<path fill="#FEFEFE" opacity="1.000000" stroke="none" 
	d="
M1913.447876,185.498688 
	C1922.080444,156.214310 1937.980103,132.840164 1966.699341,121.507172 
	C2000.216064,108.280922 2034.068359,107.542183 2066.230957,126.346733 
	C2082.838867,136.057053 2092.201172,151.737625 2097.877930,169.756149 
	C2104.616699,191.145340 2105.993652,213.214661 2106.117188,235.436600 
	C2106.143066,240.085876 2106.120850,244.735413 2106.120850,249.724854 
	C2084.289062,249.724854 2062.713623,249.724854 2040.324829,249.724854 
	C2040.324829,244.572250 2040.435425,239.299393 2040.303101,234.032639 
	C2039.970947,220.811615 2038.868530,207.682983 2032.811157,195.615173 
	C2027.981079,185.992416 2020.442017,180.202713 2009.220459,179.835434 
	C1998.077026,179.470688 1990.186768,184.678299 1984.347290,193.681213 
	C1983.533447,194.935837 1982.708496,196.222626 1982.156006,197.601639 
	C1972.645264,221.342484 1972.484375,244.727142 1985.850098,267.125366 
	C1988.944702,272.311279 1993.484985,276.807129 1997.970825,280.960938 
	C2020.101685,301.453918 2042.538086,321.616760 2064.671387,342.107056 
	C2084.338867,360.314636 2099.765381,381.306885 2105.744385,408.062256 
	C2110.733643,430.386871 2111.021973,453.013336 2109.447754,475.700378 
	C2108.150391,494.401306 2104.704346,512.637024 2097.268311,530.003967 
	C2083.524170,562.102783 2058.755371,579.679871 2024.799805,584.870728 
	C2005.202515,587.866577 1985.562256,587.977478 1966.373535,582.111328 
	C1938.531738,573.599854 1921.351196,554.248108 1911.871704,527.376709 
	C1906.054199,510.886078 1903.583984,493.762329 1903.107178,476.376434 
	C1902.751465,463.401978 1903.037109,450.409912 1903.037109,437.073273 
	C1925.365845,437.073273 1947.769775,437.073273 1970.941406,437.073273 
	C1970.941406,442.864532 1970.852173,448.792572 1970.959473,454.717010 
	C1971.204346,468.247162 1972.284912,481.677765 1976.653809,494.615875 
	C1981.670410,509.471680 1990.933960,516.849854 2004.904419,517.250610 
	C2020.938965,517.710510 2031.829468,510.724884 2037.765625,496.171997 
	C2049.786621,466.702179 2041.274902,431.608917 2017.372803,410.549286 
	C1995.246948,391.054596 1972.932007,371.737732 1951.545288,351.451843 
	C1933.327759,334.172180 1918.846191,314.030365 1913.240845,288.839722 
	C1905.608887,254.539856 1904.668335,220.195389 1913.447876,185.498688 
z"/>
<path fill="#FEFEFE" opacity="1.000000" stroke="none" 
	d="
M3029.000000,578.311096 
	C2985.542725,578.311096 2942.585449,578.311096 2899.365723,578.311096 
	C2899.365723,425.487030 2899.365723,273.073639 2899.365723,120.271744 
	C2957.364258,120.271744 3015.399658,120.271744 3073.757812,120.271744 
	C3073.757812,143.434616 3073.757812,166.682678 3073.757812,190.451508 
	C3038.060547,190.451508 3002.320312,190.451508 2966.328125,190.451508 
	C2966.328125,228.215317 2966.328125,265.460419 2966.328125,303.203552 
	C2999.348877,303.203552 3032.246826,303.203552 3065.462402,303.203552 
	C3065.462402,326.935760 3065.462402,350.174011 3065.462402,373.886230 
	C3032.644287,373.886230 2999.747070,373.886230 2966.460693,373.886230 
	C2966.460693,418.248474 2966.460693,462.141754 2966.460693,506.703979 
	C3003.245361,506.703979 3040.264160,506.703979 3077.481934,506.703979 
	C3077.481934,530.798523 3077.481934,554.224854 3077.481934,578.311096 
	C3061.355469,578.311096 3045.427734,578.311096 3029.000000,578.311096 
z"/>
<path fill="#FEFEFE" opacity="1.000000" stroke="none" 
	d="
M1738.999268,374.145294 
	C1711.374268,374.145294 1684.249390,374.145294 1656.859619,374.145294 
	C1656.859619,418.497437 1656.859619,462.404968 1656.859619,506.638306 
	C1693.785400,506.638306 1730.566895,506.638306 1767.712891,506.638306 
	C1767.712891,530.510925 1767.712891,554.062500 1767.712891,577.965881 
	C1708.582520,577.965881 1649.390259,577.965881 1589.939087,577.965881 
	C1589.939087,425.366455 1589.939087,272.822906 1589.939087,120.084755 
	C1648.128784,120.084755 1706.061035,120.084755 1764.288574,120.084755 
	C1764.288574,143.457581 1764.288574,166.704529 1764.288574,190.360321 
	C1728.554077,190.360321 1692.964722,190.360321 1656.983276,190.360321 
	C1656.983276,228.119995 1656.983276,265.473816 1656.983276,303.183899 
	C1689.838867,303.183899 1722.602905,303.183899 1755.751709,303.183899 
	C1755.751709,326.900085 1755.751709,350.266327 1755.751709,374.145294 
	C1750.387817,374.145294 1744.943481,374.145294 1738.999268,374.145294 
z"/>
<path fill="#FEFEFE" opacity="1.000000" stroke="none" 
	d="
M1039.193237,183.888947 
	C1039.193115,186.196869 1039.193115,188.019440 1039.193115,190.347260 
	C1006.205994,190.347260 973.479980,190.347260 940.429565,190.347260 
	C940.429565,229.744720 940.429565,268.632599 940.429565,308.012085 
	C971.722351,308.012085 1002.952515,308.012085 1034.470337,308.012085 
	C1034.470337,331.600189 1034.470337,354.700623 1034.470337,378.327881 
	C1003.298401,378.327881 972.051819,378.327881 940.184753,378.327881 
	C940.184753,445.213959 940.184753,511.578674 940.184753,578.123779 
	C917.476379,578.123779 895.392029,578.123779 873.039001,578.123779 
	C873.039001,425.391296 873.039001,272.847839 873.039001,120.094948 
	C928.356873,120.094948 983.445251,120.094948 1039.193359,120.094948 
	C1039.193359,141.222061 1039.193359,162.312820 1039.193237,183.888947 
z"/>
<path fill="#FEFEFE" opacity="1.000000" stroke="none" 
	d="
M2142.002197,194.353363 
	C2138.709717,194.353378 2135.918457,194.353378 2132.887695,194.353378 
	C2132.887695,169.488770 2132.887695,145.053604 2132.887695,120.253632 
	C2204.688232,120.253632 2276.552002,120.253632 2348.719727,120.253632 
	C2348.719727,144.765915 2348.719727,169.318451 2348.719727,194.390060 
	C2324.001953,194.390060 2299.442383,194.390060 2274.504395,194.390060 
	C2274.504395,322.472870 2274.504395,450.038452 2274.504395,577.958374 
	C2251.732910,577.958374 2229.343262,577.958374 2206.405029,577.958374 
	C2206.405029,450.263611 2206.405029,322.561981 2206.405029,194.353363 
	C2184.742676,194.353363 2163.623047,194.353363 2142.002197,194.353363 
z"/>
<path fill="#F1D071" opacity="1.000000" stroke="none" 
	d="
M382.043579,656.973572 
	C351.554291,656.988892 321.064056,656.887634 290.576691,657.138794 
	C285.719788,657.178833 284.892426,655.504272 284.898956,651.153015 
	C285.013458,574.678772 284.981415,498.204254 284.981873,421.729797 
	C284.981934,414.280609 284.984222,414.837372 277.747955,414.840210 
	C257.125061,414.848328 236.502563,414.215790 215.878662,414.127075 
	C205.420532,414.082123 194.959717,414.666779 184.500000,414.962769 
	C183.834091,414.981628 183.167191,414.967133 182.500748,414.965668 
	C173.003021,414.944611 172.979065,414.922699 172.979172,405.741943 
	C172.979462,377.917908 173.062103,350.093384 172.894135,322.270355 
	C172.869080,318.122925 174.049026,316.928131 178.212845,316.947510 
	C212.034149,317.105011 245.856766,316.972107 279.678162,317.116669 
	C283.722412,317.133942 285.088470,316.159485 285.075165,311.883545 
	C284.927307,264.399902 284.916687,216.915344 285.088867,169.431839 
	C285.105286,164.902130 283.742188,163.916092 279.440948,163.929901 
	C233.290192,164.078110 187.138489,163.948212 140.987961,164.129257 
	C136.147507,164.148224 134.886871,162.791092 134.924789,158.013153 
	C135.146866,130.024277 135.110733,102.032303 134.953583,74.042542 
	C134.928848,69.634865 135.964706,67.893524 140.784424,67.902168 
	C220.923569,68.045975 301.063049,68.016968 381.641663,68.527771 
	C382.038391,70.860764 381.958679,72.692528 381.958618,74.524292 
	C381.953003,266.008270 381.953003,457.492218 381.957092,648.976196 
	C381.957153,651.641968 382.013519,654.307800 382.043579,656.973572 
z"/>
<path fill="#FFFFFE" opacity="1.000000" stroke="none" 
	d="
M382.508057,657.001099 
	C382.013519,654.307800 381.957153,651.641968 381.957092,648.976196 
	C381.953003,457.492218 381.953003,266.008270 381.958618,74.524292 
	C381.958679,72.692528 382.038391,70.860764 382.118286,68.571114 
	C419.317169,68.075264 456.478729,68.023026 493.640259,68.003197 
	C534.302307,67.981499 574.964294,67.989738 615.626343,67.985001 
	C618.105164,67.984711 620.584045,67.984962 623.499146,67.984962 
	C623.647583,69.783554 623.868164,71.216705 623.869080,72.650002 
	C623.887512,101.480019 623.786255,130.310669 623.979187,159.139404 
	C624.008667,163.548752 622.421265,164.289169 618.479492,164.278030 
	C573.984924,164.152206 529.489624,164.265488 484.995422,164.088593 
	C480.172028,164.069427 478.835693,165.425949 478.853699,170.248688 
	C479.029205,217.242676 479.031677,264.237854 478.855408,311.231812 
	C478.837494,316.009094 480.068176,317.390228 484.912201,317.360901 
	C518.407104,317.158234 551.904236,317.338379 585.399536,317.170380 
	C589.759766,317.148499 591.104370,318.287994 591.073303,322.748322 
	C590.872498,351.577026 590.851685,380.408417 591.047668,409.237000 
	C591.078369,413.754761 589.658813,414.833862 585.369080,414.814301 
	C552.040222,414.662262 518.710388,414.730896 485.380859,414.731262 
	C483.434692,414.731293 481.488525,414.731262 479.109406,414.731262 
	C479.109406,495.651550 479.109406,575.911560 479.109406,657.028687 
	C446.764771,657.028687 414.868622,657.028687 382.508057,657.001099 
z"/>
<path fill="#020202" opacity="1.000000" stroke="none" 
	d="
M2717.987793,295.000000 
	C2717.987793,260.045563 2717.987793,225.591156 2717.987793,190.603134 
	C2731.767822,190.658035 2745.198730,189.909515 2758.222900,194.369217 
	C2768.016357,197.722748 2774.203613,204.629333 2776.785889,214.382950 
	C2783.662842,240.357605 2783.469482,266.444305 2776.560547,292.377106 
	C2772.832520,306.369659 2763.185791,314.543274 2749.034180,316.508820 
	C2739.039795,317.897034 2728.856689,317.928772 2717.987793,318.614685 
	C2717.987793,310.346649 2717.987793,302.923309 2717.987793,295.000000 
z"/>
<path fill="#010101" opacity="1.000000" stroke="none" 
	d="
M2485.399414,518.446228 
	C2473.842773,517.661133 2466.008545,511.924164 2460.731934,502.343292 
	C2453.344971,488.930084 2450.110840,474.203094 2449.131104,459.248199 
	C2447.280762,431.003387 2445.657227,402.693665 2445.480713,374.401306 
	C2445.236328,335.259460 2446.012939,296.096832 2447.161621,256.966858 
	C2447.712891,238.186020 2449.558105,219.336594 2456.256348,201.478394 
	C2460.304932,190.684799 2466.515381,181.542770 2478.370117,178.098419 
	C2496.464355,172.841324 2512.708496,181.286453 2519.978027,199.662552 
	C2525.741455,214.231064 2528.477539,229.607834 2528.799805,245.061707 
	C2529.803467,293.188629 2530.291748,341.332458 2530.337158,389.470367 
	C2530.357178,410.940430 2529.745117,432.498230 2527.704834,453.852386 
	C2526.340820,468.128693 2523.080078,482.482849 2518.629639,496.137726 
	C2513.407471,512.159485 2502.702393,518.399719 2485.399414,518.446228 
z"/>
</svg>